<?xml version="1.0" encoding="UTF-8"?>
<svg xmlns="http://www.w3.org/2000/svg" xmlns:xlink="http://www.w3.org/1999/xlink" width="158.599" height="154.082" viewBox="0 0 158.599 154.082">
<defs>
<g>
<g id="glyph-0-0">
<path d="M 1.15625 -1.546875 C 1.421875 -1.4375 1.625 -1.4375 1.828125 -1.4375 C 2.046875 -1.4375 2.453125 -1.4375 2.453125 -1.703125 C 2.453125 -1.890625 2.1875 -1.921875 1.890625 -1.921875 C 1.796875 -1.921875 1.5 -1.921875 1.15625 -1.78125 C 1 -1.859375 0.890625 -1.984375 0.890625 -2.140625 C 0.890625 -2.515625 1.5625 -2.75 2.265625 -2.75 C 2.375 -2.75 2.671875 -2.75 2.984375 -2.546875 C 3.03125 -2.53125 3.078125 -2.484375 3.125 -2.484375 C 3.21875 -2.484375 3.34375 -2.59375 3.34375 -2.71875 C 3.34375 -2.84375 3.125 -2.953125 2.984375 -3 C 2.6875 -3.125 2.453125 -3.125 2.34375 -3.125 C 1.5 -3.125 0.65625 -2.6875 0.65625 -2.125 C 0.65625 -1.84375 0.921875 -1.671875 0.921875 -1.65625 C 0.671875 -1.5 0.328125 -1.203125 0.328125 -0.765625 C 0.328125 -0.25 0.828125 0.140625 1.59375 0.140625 C 2.65625 0.140625 3.03125 -0.484375 3.03125 -0.59375 C 3.03125 -0.640625 2.984375 -0.6875 2.921875 -0.6875 C 2.890625 -0.6875 2.859375 -0.65625 2.84375 -0.625 C 2.671875 -0.359375 2.4375 -0.25 1.703125 -0.25 C 1.53125 -0.25 1.203125 -0.25 0.953125 -0.34375 C 0.6875 -0.4375 0.5625 -0.625 0.5625 -0.8125 C 0.5625 -0.96875 0.6875 -1.296875 1.15625 -1.546875 Z M 1.453125 -1.671875 C 1.53125 -1.6875 1.671875 -1.71875 1.875 -1.71875 C 2.03125 -1.71875 2.0625 -1.71875 2.203125 -1.6875 C 2.109375 -1.640625 2.078125 -1.640625 1.828125 -1.640625 C 1.71875 -1.640625 1.578125 -1.640625 1.453125 -1.671875 Z M 1.453125 -1.671875 "/>
</g>
<g id="glyph-0-1">
<path d="M 3.015625 -0.5625 C 2.96875 -0.421875 2.90625 -0.1875 2.90625 -0.15625 C 2.90625 0 3.03125 0.0625 3.15625 0.0625 C 3.28125 0.0625 3.390625 -0.015625 3.421875 -0.078125 C 3.453125 -0.140625 3.515625 -0.375 3.546875 -0.515625 C 3.578125 -0.640625 3.65625 -0.96875 3.703125 -1.140625 C 3.734375 -1.296875 3.78125 -1.4375 3.8125 -1.609375 C 3.890625 -1.90625 3.890625 -1.921875 4.03125 -2.125 C 4.25 -2.46875 4.59375 -2.859375 5.140625 -2.859375 C 5.53125 -2.859375 5.546875 -2.546875 5.546875 -2.375 C 5.546875 -1.96875 5.25 -1.1875 5.140625 -0.90625 C 5.0625 -0.703125 5.03125 -0.640625 5.03125 -0.53125 C 5.03125 -0.15625 5.34375 0.0625 5.703125 0.0625 C 6.390625 0.0625 6.6875 -0.890625 6.6875 -0.984375 C 6.6875 -1.078125 6.609375 -1.078125 6.578125 -1.078125 C 6.484375 -1.078125 6.484375 -1.046875 6.453125 -0.96875 C 6.296875 -0.40625 6 -0.125 5.71875 -0.125 C 5.578125 -0.125 5.546875 -0.21875 5.546875 -0.375 C 5.546875 -0.53125 5.578125 -0.625 5.703125 -0.921875 C 5.78125 -1.140625 6.078125 -1.875 6.078125 -2.265625 C 6.078125 -2.375 6.078125 -2.671875 5.8125 -2.875 C 5.703125 -2.96875 5.5 -3.0625 5.171875 -3.0625 C 4.546875 -3.0625 4.15625 -2.65625 3.9375 -2.359375 C 3.890625 -2.953125 3.390625 -3.0625 3.03125 -3.0625 C 2.46875 -3.0625 2.078125 -2.703125 1.859375 -2.421875 C 1.8125 -2.90625 1.40625 -3.0625 1.125 -3.0625 C 0.828125 -3.0625 0.671875 -2.84375 0.578125 -2.6875 C 0.421875 -2.421875 0.328125 -2.03125 0.328125 -2 C 0.328125 -1.90625 0.421875 -1.90625 0.4375 -1.90625 C 0.546875 -1.90625 0.546875 -1.921875 0.59375 -2.109375 C 0.703125 -2.53125 0.828125 -2.859375 1.109375 -2.859375 C 1.28125 -2.859375 1.328125 -2.71875 1.328125 -2.53125 C 1.328125 -2.390625 1.265625 -2.140625 1.21875 -1.953125 C 1.171875 -1.765625 1.109375 -1.484375 1.0625 -1.328125 L 0.84375 -0.4375 C 0.8125 -0.34375 0.78125 -0.171875 0.78125 -0.15625 C 0.78125 0 0.90625 0.0625 1.015625 0.0625 C 1.140625 0.0625 1.25 -0.015625 1.28125 -0.078125 C 1.3125 -0.140625 1.375 -0.375 1.40625 -0.515625 C 1.4375 -0.640625 1.515625 -0.96875 1.5625 -1.140625 C 1.609375 -1.296875 1.640625 -1.4375 1.671875 -1.609375 C 1.75 -1.890625 1.765625 -1.9375 1.96875 -2.234375 C 2.171875 -2.5 2.484375 -2.859375 3.015625 -2.859375 C 3.40625 -2.859375 3.421875 -2.515625 3.421875 -2.375 C 3.421875 -2.203125 3.40625 -2.109375 3.296875 -1.734375 Z M 3.015625 -0.5625 "/>
</g>
<g id="glyph-1-0">
<path d="M 5.640625 -4.046875 C 5.734375 -4.140625 5.765625 -4.1875 5.765625 -4.25 C 5.765625 -4.359375 5.671875 -4.4375 5.578125 -4.4375 C 5.5 -4.4375 5.5 -4.421875 5.390625 -4.328125 L 3.546875 -2.5 L 1.640625 -4.40625 C 1.59375 -4.4375 1.546875 -4.4375 1.546875 -4.4375 C 1.4375 -4.4375 1.34375 -4.359375 1.34375 -4.25 C 1.34375 -4.171875 1.375 -4.140625 1.484375 -4.046875 L 3.28125 -2.234375 L 1.484375 -0.421875 C 1.359375 -0.296875 1.34375 -0.265625 1.34375 -0.21875 C 1.34375 -0.109375 1.4375 -0.015625 1.546875 -0.015625 C 1.546875 -0.015625 1.59375 -0.015625 1.640625 -0.046875 L 3.546875 -1.953125 L 5.421875 -0.109375 C 5.46875 -0.046875 5.5 -0.015625 5.578125 -0.015625 C 5.671875 -0.015625 5.765625 -0.09375 5.765625 -0.21875 C 5.765625 -0.25 5.75 -0.296875 5.71875 -0.328125 C 5.703125 -0.359375 4.125 -1.9375 3.828125 -2.234375 Z M 5.640625 -4.046875 "/>
</g>
<g id="glyph-2-0">
<path d="M 2.703125 -2.765625 C 2.578125 -2.71875 2.5 -2.609375 2.5 -2.46875 C 2.5 -2.28125 2.640625 -2.140625 2.828125 -2.140625 C 3.015625 -2.140625 3.15625 -2.25 3.15625 -2.484375 C 3.15625 -3.09375 2.203125 -3.09375 2 -3.09375 C 0.96875 -3.09375 0.3125 -2.296875 0.3125 -1.5 C 0.3125 -0.625 1.0625 0.0625 1.96875 0.0625 C 3 0.0625 3.25 -0.75 3.25 -0.828125 C 3.25 -0.921875 3.15625 -0.921875 3.125 -0.921875 C 3.03125 -0.921875 3.03125 -0.890625 3 -0.796875 C 2.84375 -0.375 2.484375 -0.15625 2.046875 -0.15625 C 1.578125 -0.15625 0.953125 -0.5 0.953125 -1.5 C 0.953125 -2.390625 1.375 -2.875 2.03125 -2.875 C 2.109375 -2.875 2.453125 -2.875 2.703125 -2.765625 Z M 2.703125 -2.765625 "/>
</g>
<g id="glyph-2-1">
<path d="M 3.671875 -1.484375 C 3.671875 -2.34375 2.921875 -3.09375 1.96875 -3.09375 C 1.015625 -3.09375 0.265625 -2.34375 0.265625 -1.484375 C 0.265625 -0.625 1.03125 0.0625 1.96875 0.0625 C 2.90625 0.0625 3.671875 -0.625 3.671875 -1.484375 Z M 1.96875 -0.15625 C 1.71875 -0.15625 1.34375 -0.234375 1.109375 -0.578125 C 0.921875 -0.859375 0.90625 -1.21875 0.90625 -1.546875 C 0.90625 -1.84375 0.90625 -2.25 1.15625 -2.546875 C 1.328125 -2.75 1.609375 -2.90625 1.96875 -2.90625 C 2.375 -2.90625 2.671875 -2.703125 2.828125 -2.484375 C 3.015625 -2.21875 3.03125 -1.875 3.03125 -1.546875 C 3.03125 -1.203125 3.015625 -0.84375 2.8125 -0.5625 C 2.625 -0.296875 2.3125 -0.15625 1.96875 -0.15625 Z M 1.96875 -0.15625 "/>
</g>
<g id="glyph-2-2">
<path d="M 1.375 -1.578125 C 1.375 -2.171875 1.65625 -2.859375 2.3125 -2.859375 C 2.25 -2.8125 2.1875 -2.71875 2.1875 -2.609375 C 2.1875 -2.390625 2.375 -2.296875 2.5 -2.296875 C 2.671875 -2.296875 2.828125 -2.40625 2.828125 -2.609375 C 2.828125 -2.84375 2.609375 -3.0625 2.28125 -3.0625 C 1.921875 -3.0625 1.546875 -2.84375 1.34375 -2.3125 L 1.328125 -2.3125 L 1.328125 -3.0625 L 0.34375 -2.984375 L 0.34375 -2.734375 C 0.8125 -2.734375 0.859375 -2.6875 0.859375 -2.34375 L 0.859375 -0.546875 C 0.859375 -0.25 0.796875 -0.25 0.34375 -0.25 L 0.34375 0 C 0.375 0 0.84375 -0.03125 1.125 -0.03125 C 1.421875 -0.03125 1.734375 -0.015625 2.03125 0 L 2.03125 -0.25 L 1.890625 -0.25 C 1.375 -0.25 1.375 -0.328125 1.375 -0.5625 Z M 1.375 -1.578125 "/>
</g>
<g id="glyph-2-3">
<path d="M 3.046875 -1.578125 C 3.203125 -1.578125 3.25 -1.578125 3.25 -1.734375 C 3.25 -2.34375 2.90625 -3.09375 1.875 -3.09375 C 0.96875 -3.09375 0.265625 -2.375 0.265625 -1.515625 C 0.265625 -0.640625 1.046875 0.0625 1.96875 0.0625 C 2.90625 0.0625 3.25 -0.6875 3.25 -0.828125 C 3.25 -0.859375 3.234375 -0.921875 3.125 -0.921875 C 3.03125 -0.921875 3.03125 -0.890625 3 -0.8125 C 2.78125 -0.25 2.265625 -0.15625 2.015625 -0.15625 C 1.6875 -0.15625 1.375 -0.296875 1.171875 -0.5625 C 0.90625 -0.890625 0.90625 -1.3125 0.90625 -1.578125 Z M 0.90625 -1.765625 C 0.984375 -2.734375 1.609375 -2.90625 1.875 -2.90625 C 2.71875 -2.90625 2.75 -1.9375 2.765625 -1.765625 Z M 0.90625 -1.765625 "/>
</g>
<g id="glyph-2-4">
<path d="M 2.46875 -5.203125 C 1.140625 -4.28125 0.796875 -2.796875 0.796875 -1.734375 C 0.796875 -0.765625 1.09375 0.75 2.46875 1.734375 C 2.515625 1.734375 2.609375 1.734375 2.609375 1.640625 C 2.609375 1.609375 2.578125 1.59375 2.53125 1.546875 C 1.609375 0.703125 1.265625 -0.46875 1.265625 -1.734375 C 1.265625 -3.609375 1.984375 -4.515625 2.546875 -5.03125 C 2.578125 -5.0625 2.609375 -5.078125 2.609375 -5.125 C 2.609375 -5.203125 2.515625 -5.203125 2.46875 -5.203125 Z M 2.46875 -5.203125 "/>
</g>
<g id="glyph-2-5">
<path d="M 1.46875 -4.28125 C 1.46875 -4.484375 1.296875 -4.671875 1.0625 -4.671875 C 0.859375 -4.671875 0.671875 -4.515625 0.671875 -4.28125 C 0.671875 -4.03125 0.875 -3.875 1.0625 -3.875 C 1.28125 -3.875 1.46875 -4.046875 1.46875 -4.28125 Z M 0.40625 -2.984375 L 0.40625 -2.734375 C 0.84375 -2.734375 0.90625 -2.6875 0.90625 -2.359375 L 0.90625 -0.546875 C 0.90625 -0.25 0.84375 -0.25 0.390625 -0.25 L 0.390625 0 C 0.40625 0 0.890625 -0.03125 1.171875 -0.03125 C 1.40625 -0.03125 1.65625 -0.015625 1.90625 0 L 1.90625 -0.25 C 1.5 -0.25 1.421875 -0.25 1.421875 -0.546875 L 1.421875 -3.0625 Z M 0.40625 -2.984375 "/>
</g>
<g id="glyph-2-6">
<path d="M 3.578125 -2.109375 C 3.578125 -2.703125 3.28125 -3.0625 2.53125 -3.0625 C 1.96875 -3.0625 1.59375 -2.75 1.40625 -2.390625 L 1.390625 -2.390625 L 1.390625 -3.0625 L 0.375 -2.984375 L 0.375 -2.734375 C 0.84375 -2.734375 0.890625 -2.6875 0.890625 -2.34375 L 0.890625 -0.546875 C 0.890625 -0.25 0.828125 -0.25 0.375 -0.25 L 0.375 0 C 0.390625 0 0.875 -0.03125 1.171875 -0.03125 C 1.421875 -0.03125 1.90625 0 1.96875 0 L 1.96875 -0.25 C 1.515625 -0.25 1.4375 -0.25 1.4375 -0.546875 L 1.4375 -1.796875 C 1.4375 -2.53125 2.015625 -2.859375 2.484375 -2.859375 C 2.96875 -2.859375 3.03125 -2.484375 3.03125 -2.125 L 3.03125 -0.546875 C 3.03125 -0.25 2.953125 -0.25 2.5 -0.25 L 2.5 0 C 2.515625 0 3 -0.03125 3.296875 -0.03125 C 3.546875 -0.03125 4.03125 0 4.09375 0 L 4.09375 -0.25 C 3.640625 -0.25 3.578125 -0.25 3.578125 -0.546875 Z M 3.578125 -2.109375 "/>
</g>
<g id="glyph-2-7">
<path d="M 0.625 -5.203125 C 0.578125 -5.203125 0.5 -5.203125 0.5 -5.125 C 0.5 -5.078125 0.515625 -5.0625 0.5625 -5.015625 C 1.15625 -4.46875 1.8125 -3.53125 1.8125 -1.734375 C 1.8125 -0.296875 1.359375 0.8125 0.625 1.484375 C 0.5 1.609375 0.5 1.609375 0.5 1.640625 C 0.5 1.671875 0.515625 1.734375 0.578125 1.734375 C 0.671875 1.734375 1.328125 1.265625 1.78125 0.40625 C 2.09375 -0.171875 2.296875 -0.921875 2.296875 -1.734375 C 2.296875 -2.71875 2 -4.234375 0.625 -5.203125 Z M 0.625 -5.203125 "/>
</g>
<g id="glyph-2-8">
<path d="M 1.375 -4.8125 L 0.34375 -4.734375 L 0.34375 -4.484375 C 0.8125 -4.484375 0.859375 -4.4375 0.859375 -4.09375 L 0.859375 0 L 1.09375 0 L 1.34375 -0.421875 C 1.609375 -0.078125 1.984375 0.0625 2.359375 0.0625 C 3.265625 0.0625 4.046875 -0.625 4.046875 -1.5 C 4.046875 -2.34375 3.34375 -3.0625 2.421875 -3.0625 C 2.015625 -3.0625 1.625 -2.890625 1.375 -2.640625 Z M 1.40625 -2.328125 C 1.609375 -2.640625 1.984375 -2.859375 2.390625 -2.859375 C 2.78125 -2.859375 3.0625 -2.640625 3.203125 -2.4375 C 3.34375 -2.234375 3.421875 -1.96875 3.421875 -1.5 C 3.421875 -1.34375 3.421875 -0.828125 3.140625 -0.5 C 2.859375 -0.1875 2.515625 -0.125 2.3125 -0.125 C 1.765625 -0.125 1.484375 -0.5625 1.40625 -0.703125 Z M 1.40625 -2.328125 "/>
</g>
<g id="glyph-2-9">
<path d="M 2.46875 -4.734375 L 2.46875 -4.484375 C 2.9375 -4.484375 2.984375 -4.4375 2.984375 -4.09375 L 2.984375 -2.65625 C 2.734375 -2.90625 2.40625 -3.0625 2.015625 -3.0625 C 1.09375 -3.0625 0.3125 -2.359375 0.3125 -1.484375 C 0.3125 -0.625 1.046875 0.0625 1.9375 0.0625 C 2.5 0.0625 2.84375 -0.234375 2.96875 -0.359375 L 2.96875 0.0625 L 4.03125 0 L 4.03125 -0.25 C 3.5625 -0.25 3.515625 -0.296875 3.515625 -0.640625 L 3.515625 -4.8125 Z M 2.96875 -0.734375 C 2.78125 -0.40625 2.421875 -0.125 1.984375 -0.125 C 1.59375 -0.125 1.3125 -0.359375 1.171875 -0.5625 C 1.03125 -0.765625 0.953125 -1.046875 0.953125 -1.484375 C 0.953125 -1.640625 0.953125 -2.171875 1.234375 -2.484375 C 1.515625 -2.796875 1.859375 -2.859375 2.046875 -2.859375 C 2.390625 -2.859375 2.6875 -2.71875 2.875 -2.46875 C 2.96875 -2.359375 2.96875 -2.34375 2.96875 -2.21875 Z M 2.96875 -0.734375 "/>
</g>
<g id="glyph-2-10">
<path d="M 3.09375 -1.859375 C 3.09375 -2.234375 3.09375 -2.484375 2.78125 -2.75 C 2.484375 -2.984375 2.15625 -3.09375 1.75 -3.09375 C 1.09375 -3.09375 0.625 -2.84375 0.625 -2.421875 C 0.625 -2.203125 0.78125 -2.078125 0.953125 -2.078125 C 1.140625 -2.078125 1.28125 -2.21875 1.28125 -2.40625 C 1.28125 -2.53125 1.234375 -2.671875 1.046875 -2.71875 C 1.296875 -2.90625 1.6875 -2.90625 1.734375 -2.90625 C 2.125 -2.90625 2.546875 -2.640625 2.546875 -2.0625 L 2.546875 -1.84375 C 2.171875 -1.828125 1.703125 -1.8125 1.203125 -1.625 C 0.578125 -1.390625 0.375 -1.015625 0.375 -0.703125 C 0.375 -0.109375 1.109375 0.0625 1.59375 0.0625 C 2.15625 0.0625 2.484375 -0.25 2.625 -0.515625 C 2.65625 -0.234375 2.84375 0.03125 3.15625 0.03125 C 3.171875 0.03125 3.84375 0.03125 3.84375 -0.625 L 3.84375 -1 L 3.609375 -1 L 3.609375 -0.625 C 3.609375 -0.5625 3.609375 -0.234375 3.34375 -0.234375 C 3.09375 -0.234375 3.09375 -0.5625 3.09375 -0.640625 Z M 2.546875 -0.984375 C 2.546875 -0.3125 1.96875 -0.125 1.65625 -0.125 C 1.296875 -0.125 0.96875 -0.359375 0.96875 -0.703125 C 0.96875 -1.078125 1.296875 -1.609375 2.546875 -1.671875 Z M 2.546875 -0.984375 "/>
</g>
<g id="glyph-2-11">
<path d="M 1.421875 -4.15625 C 1.421875 -3.921875 1.421875 -3.359375 0.875 -2.875 C 0.828125 -2.828125 0.8125 -2.8125 0.8125 -2.78125 C 0.8125 -2.734375 0.875 -2.671875 0.921875 -2.671875 C 1 -2.671875 1.625 -3.203125 1.625 -4.0625 C 1.625 -4.46875 1.453125 -4.8125 1.109375 -4.8125 C 0.875 -4.8125 0.71875 -4.625 0.71875 -4.40625 C 0.71875 -4.25 0.828125 -4.015625 1.125 -4.015625 C 1.3125 -4.015625 1.375 -4.09375 1.421875 -4.15625 Z M 1.421875 -4.15625 "/>
</g>
<g id="glyph-2-12">
<path d="M 2.625 -2.90625 C 2.625 -3.03125 2.625 -3.09375 2.53125 -3.09375 C 2.5 -3.09375 2.484375 -3.09375 2.390625 -3.015625 C 2.375 -3 2.3125 -2.9375 2.265625 -2.90625 C 2.0625 -3.046875 1.796875 -3.09375 1.546875 -3.09375 C 0.546875 -3.09375 0.3125 -2.578125 0.3125 -2.234375 C 0.3125 -2 0.40625 -1.828125 0.578125 -1.6875 C 0.84375 -1.453125 1.109375 -1.40625 1.53125 -1.34375 C 1.875 -1.28125 2.4375 -1.171875 2.4375 -0.71875 C 2.4375 -0.4375 2.25 -0.125 1.59375 -0.125 C 0.921875 -0.125 0.6875 -0.5625 0.5625 -1.03125 C 0.53125 -1.125 0.53125 -1.15625 0.4375 -1.15625 C 0.3125 -1.15625 0.3125 -1.109375 0.3125 -0.96875 L 0.3125 -0.109375 C 0.3125 0 0.3125 0.0625 0.40625 0.0625 C 0.46875 0.0625 0.609375 -0.078125 0.75 -0.234375 C 1.046875 0.0625 1.421875 0.0625 1.59375 0.0625 C 2.484375 0.0625 2.828125 -0.421875 2.828125 -0.90625 C 2.828125 -1.171875 2.703125 -1.375 2.53125 -1.546875 C 2.265625 -1.796875 1.9375 -1.84375 1.703125 -1.890625 C 1.140625 -1.984375 0.6875 -2.0625 0.6875 -2.4375 C 0.6875 -2.65625 0.875 -2.921875 1.546875 -2.921875 C 2.34375 -2.921875 2.375 -2.359375 2.390625 -2.171875 C 2.40625 -2.09375 2.484375 -2.09375 2.515625 -2.09375 C 2.625 -2.09375 2.625 -2.140625 2.625 -2.265625 Z M 2.625 -2.90625 "/>
</g>
<g id="glyph-3-0">
<path d="M 5.28125 -2.296875 C 5.390625 -2.359375 5.4375 -2.421875 5.4375 -2.484375 C 5.4375 -2.5625 5.390625 -2.625 5.28125 -2.671875 L 1.0625 -4.703125 C 0.96875 -4.75 0.9375 -4.75 0.921875 -4.75 C 0.828125 -4.75 0.75 -4.671875 0.75 -4.578125 C 0.75 -4.46875 0.828125 -4.4375 0.890625 -4.40625 L 4.875 -2.484375 L 0.921875 -0.59375 C 0.8125 -0.53125 0.75 -0.5 0.75 -0.390625 C 0.75 -0.3125 0.8125 -0.234375 0.921875 -0.234375 C 0.921875 -0.234375 0.96875 -0.234375 1.046875 -0.265625 Z M 5.15625 1.296875 C 5.265625 1.296875 5.4375 1.296875 5.4375 1.125 C 5.4375 0.953125 5.28125 0.953125 5.15625 0.953125 L 1.03125 0.953125 C 0.90625 0.953125 0.75 0.953125 0.75 1.125 C 0.75 1.296875 0.921875 1.296875 1.03125 1.296875 Z M 5.15625 1.296875 "/>
</g>
</g>
<clipPath id="clip-0">
<path clip-rule="nonzero" d="M 0.269531 18 L 24 18 L 24 44 L 0.269531 44 Z M 0.269531 18 "/>
</clipPath>
<clipPath id="clip-1">
<path clip-rule="nonzero" d="M 0.269531 79 L 117 79 L 117 153.167969 L 0.269531 153.167969 Z M 0.269531 79 "/>
</clipPath>
<clipPath id="clip-2">
<path clip-rule="nonzero" d="M 0.269531 102 L 25 102 L 25 128 L 0.269531 128 Z M 0.269531 102 "/>
</clipPath>
</defs>
<path fill-rule="nonzero" fill="rgb(0%, 0%, 69.999695%)" fill-opacity="1" d="M 33.058594 47.9375 C 33.058594 46.570312 31.949219 45.460938 30.582031 45.460938 C 29.214844 45.460938 28.105469 46.570312 28.105469 47.9375 C 28.105469 49.304688 29.214844 50.414062 30.582031 50.414062 C 31.949219 50.414062 33.058594 49.304688 33.058594 47.9375 Z M 33.058594 47.9375 "/>
<path fill-rule="nonzero" fill="rgb(0%, 0%, 69.999695%)" fill-opacity="1" d="M 45.738281 40.894531 C 45.738281 39.527344 44.628906 38.417969 43.261719 38.417969 C 41.894531 38.417969 40.789062 39.527344 40.789062 40.894531 C 40.789062 42.261719 41.894531 43.371094 43.261719 43.371094 C 44.628906 43.371094 45.738281 42.261719 45.738281 40.894531 Z M 45.738281 40.894531 "/>
<path fill-rule="nonzero" fill="rgb(0%, 0%, 69.999695%)" fill-opacity="1" d="M 23.195312 38.074219 C 23.195312 36.707031 22.085938 35.601562 20.71875 35.601562 C 19.351562 35.601562 18.242188 36.707031 18.242188 38.074219 C 18.242188 39.441406 19.351562 40.550781 20.71875 40.550781 C 22.085938 40.550781 23.195312 39.441406 23.195312 38.074219 Z M 23.195312 38.074219 "/>
<path fill-rule="nonzero" fill="rgb(0%, 0%, 69.999695%)" fill-opacity="1" d="M 37.285156 60.617188 C 37.285156 59.25 36.175781 58.144531 34.808594 58.144531 C 33.441406 58.144531 32.332031 59.25 32.332031 60.617188 C 32.332031 61.984375 33.441406 63.09375 34.808594 63.09375 C 36.175781 63.09375 37.285156 61.984375 37.285156 60.617188 Z M 37.285156 60.617188 "/>
<path fill-rule="nonzero" fill="rgb(0%, 0%, 69.999695%)" fill-opacity="1" d="M 21.789062 53.574219 C 21.789062 52.207031 20.679688 51.097656 19.3125 51.097656 C 17.945312 51.097656 16.835938 52.207031 16.835938 53.574219 C 16.835938 54.941406 17.945312 56.050781 19.3125 56.050781 C 20.679688 56.050781 21.789062 54.941406 21.789062 53.574219 Z M 21.789062 53.574219 "/>
<path fill-rule="nonzero" fill="rgb(87.998962%, 87.998962%, 100%)" fill-opacity="1" stroke-width="0.69739" stroke-linecap="round" stroke-linejoin="miter" stroke="rgb(0%, 0%, 69.999695%)" stroke-opacity="1" stroke-miterlimit="10" d="M 25.167873 15.589312 C 25.167873 16.964645 24.051889 18.08063 22.676556 18.08063 C 21.301223 18.08063 20.185238 16.964645 20.185238 15.589312 C 20.185238 14.213979 21.301223 13.101924 22.676556 13.101924 C 24.051889 13.101924 25.167873 14.213979 25.167873 15.589312 Z M 25.167873 15.589312 " transform="matrix(0.994077, 0, 0, -0.994077, 30.582748, 47.938389)"/>
<path fill-rule="nonzero" fill="rgb(87.998962%, 87.998962%, 100%)" fill-opacity="1" d="M 13.332031 31.03125 C 13.332031 29.664062 12.226562 28.554688 10.859375 28.554688 C 9.488281 28.554688 8.382812 29.664062 8.382812 31.03125 C 8.382812 32.398438 9.488281 33.507812 10.859375 33.507812 C 12.226562 33.507812 13.332031 32.398438 13.332031 31.03125 Z M 13.332031 31.03125 "/>
<g clip-path="url(#clip-0)">
<path fill="none" stroke-width="0.69739" stroke-linecap="round" stroke-linejoin="miter" stroke="rgb(0%, 0%, 69.999695%)" stroke-opacity="1" stroke-miterlimit="10" d="M -17.353494 17.00787 C -17.353494 18.383203 -18.465549 19.499187 -19.840882 19.499187 C -21.220145 19.499187 -22.3322 18.383203 -22.3322 17.00787 C -22.3322 15.632537 -21.220145 14.516552 -19.840882 14.516552 C -18.465549 14.516552 -17.353494 15.632537 -17.353494 17.00787 Z M -17.353494 17.00787 " transform="matrix(0.994077, 0, 0, -0.994077, 30.582748, 47.938389)"/>
</g>
<path fill="none" stroke-width="0.3985" stroke-linecap="round" stroke-linejoin="miter" stroke="rgb(44.999695%, 44.999695%, 100%)" stroke-opacity="1" stroke-dasharray="2.98883 2.98883" stroke-miterlimit="10" d="M 24.095114 0.00089477 C 24.095114 13.306259 13.308573 24.096729 -0.000720929 24.096729 C -13.306086 24.096729 -24.096555 13.306259 -24.096555 0.00089477 C -24.096555 -13.308399 -13.306086 -24.09494 -0.000720929 -24.09494 C 13.308573 -24.09494 24.095114 -13.308399 24.095114 0.00089477 Z M 24.095114 0.00089477 " transform="matrix(0.994077, 0, 0, -0.994077, 30.582748, 47.938389)"/>
<path fill="none" stroke-width="0.3985" stroke-linecap="round" stroke-linejoin="miter" stroke="rgb(44.999695%, 44.999695%, 100%)" stroke-opacity="1" stroke-miterlimit="10" d="M 3.087884 0.00089477 L 23.698232 0.00089477 " transform="matrix(0.994077, 0, 0, -0.994077, 30.582748, 47.938389)"/>
<path fill="none" stroke-width="0.3985" stroke-linecap="round" stroke-linejoin="round" stroke="rgb(44.999695%, 44.999695%, 100%)" stroke-opacity="1" stroke-miterlimit="10" d="M -2.073077 2.392185 C -1.691913 0.957909 -0.850995 0.278101 0.00171159 -0.00089477 C -0.850995 -0.279891 -1.691913 -0.955769 -2.073077 -2.390045 " transform="matrix(-0.994077, 0, 0, 0.994077, 33.454826, 47.938389)"/>
<path fill="none" stroke-width="0.3985" stroke-linecap="round" stroke-linejoin="round" stroke="rgb(44.999695%, 44.999695%, 100%)" stroke-opacity="1" stroke-miterlimit="10" d="M -2.071841 2.390045 C -1.694606 0.955769 -0.849759 0.279891 -0.000982075 0.00089477 C -0.849759 -0.278101 -1.694606 -0.957909 -2.071841 -2.392185 " transform="matrix(0.994077, 0, 0, -0.994077, 54.336914, 47.938389)"/>
<g fill="rgb(44.999695%, 44.999695%, 100%)" fill-opacity="1">
<use xlink:href="#glyph-0-0" x="42.024579" y="44.439237"/>
</g>
<path fill-rule="nonzero" fill="rgb(0%, 0%, 69.999695%)" fill-opacity="1" d="M 120.414062 33.847656 C 120.414062 32.480469 119.304688 31.371094 117.9375 31.371094 C 116.570312 31.371094 115.460938 32.480469 115.460938 33.847656 C 115.460938 35.214844 116.570312 36.324219 117.9375 36.324219 C 119.304688 36.324219 120.414062 35.214844 120.414062 33.847656 Z M 120.414062 33.847656 "/>
<path fill-rule="nonzero" fill="rgb(0%, 0%, 69.999695%)" fill-opacity="1" d="M 131.683594 39.484375 C 131.683594 38.117188 130.578125 37.007812 129.207031 37.007812 C 127.839844 37.007812 126.734375 38.117188 126.734375 39.484375 C 126.734375 40.851562 127.839844 41.960938 129.207031 41.960938 C 130.578125 41.960938 131.683594 40.851562 131.683594 39.484375 Z M 131.683594 39.484375 "/>
<path fill-rule="nonzero" fill="rgb(0%, 0%, 69.999695%)" fill-opacity="1" d="M 111.960938 26.804688 C 111.960938 25.4375 110.851562 24.328125 109.484375 24.328125 C 108.117188 24.328125 107.007812 25.4375 107.007812 26.804688 C 107.007812 28.171875 108.117188 29.28125 109.484375 29.28125 C 110.851562 29.28125 111.960938 28.171875 111.960938 26.804688 Z M 111.960938 26.804688 "/>
<path fill-rule="nonzero" fill="rgb(0%, 0%, 69.999695%)" fill-opacity="1" d="M 124.640625 22.578125 C 124.640625 21.210938 123.53125 20.101562 122.164062 20.101562 C 120.796875 20.101562 119.6875 21.210938 119.6875 22.578125 C 119.6875 23.945312 120.796875 25.054688 122.164062 25.054688 C 123.53125 25.054688 124.640625 23.945312 124.640625 22.578125 Z M 124.640625 22.578125 "/>
<path fill-rule="nonzero" fill="rgb(87.998962%, 87.998962%, 100%)" fill-opacity="1" stroke-width="0.69739" stroke-linecap="round" stroke-linejoin="miter" stroke="rgb(0%, 0%, 69.999695%)" stroke-opacity="1" stroke-miterlimit="10" d="M 108.792051 18.426428 C 108.792051 19.801761 107.676066 20.917745 106.300733 20.917745 C 104.9254 20.917745 103.809415 19.801761 103.809415 18.426428 C 103.809415 17.051095 104.9254 15.93511 106.300733 15.93511 C 107.676066 15.93511 108.792051 17.051095 108.792051 18.426428 Z M 108.792051 18.426428 " transform="matrix(0.994077, 0, 0, -0.994077, 30.582748, 47.938389)"/>
<path fill-rule="nonzero" fill="rgb(87.998962%, 87.998962%, 100%)" fill-opacity="1" stroke-width="0.69739" stroke-linecap="round" stroke-linejoin="miter" stroke="rgb(0%, 0%, 69.999695%)" stroke-opacity="1" stroke-miterlimit="10" d="M 76.192728 9.92294 C 76.192728 11.298273 75.076744 12.410328 73.701411 12.410328 C 72.326078 12.410328 71.210093 11.298273 71.210093 9.92294 C 71.210093 8.547607 72.326078 7.431623 73.701411 7.431623 C 75.076744 7.431623 76.192728 8.547607 76.192728 9.92294 Z M 76.192728 9.92294 " transform="matrix(0.994077, 0, 0, -0.994077, 30.582748, 47.938389)"/>
<g fill="rgb(59.999084%, 0%, 0%)" fill-opacity="1">
<use xlink:href="#glyph-1-0" x="74.923571" y="81.163439"/>
</g>
<g fill="rgb(59.999084%, 0%, 0%)" fill-opacity="1">
<use xlink:href="#glyph-1-0" x="142.552646" y="69.891595"/>
</g>
<g fill="rgb(59.999084%, 0%, 0%)" fill-opacity="1">
<use xlink:href="#glyph-1-0" x="66.469937" y="13.534364"/>
</g>
<g clip-path="url(#clip-1)">
<path fill="none" stroke-width="0.3985" stroke-linecap="round" stroke-linejoin="miter" stroke="rgb(0%, 0%, 0%)" stroke-opacity="1" stroke-miterlimit="10" d="M 76.503161 -37.050577 L -21.326242 -37.050577 C -23.526775 -37.050577 -25.310778 -38.83458 -25.310778 -41.035113 L -25.310778 -96.692876 C -25.310778 -98.893408 -23.526775 -100.677412 -21.326242 -100.677412 L 76.503161 -100.677412 C 78.703694 -100.677412 80.487697 -98.893408 80.487697 -96.692876 L 80.487697 -41.035113 C 80.487697 -38.83458 78.703694 -37.050577 76.503161 -37.050577 Z M 76.503161 -37.050577 " transform="matrix(0.994077, 0, 0, -0.994077, 30.582748, 47.938389)"/>
</g>
<path fill-rule="nonzero" fill="rgb(0%, 0%, 69.999695%)" fill-opacity="1" d="M 14.574219 98.050781 C 14.574219 96.679688 13.464844 95.574219 12.097656 95.574219 C 10.730469 95.574219 9.621094 96.679688 9.621094 98.050781 C 9.621094 99.417969 10.730469 100.523438 12.097656 100.523438 C 13.464844 100.523438 14.574219 99.417969 14.574219 98.050781 Z M 14.574219 98.050781 "/>
<g fill="rgb(0%, 0%, 0%)" fill-opacity="1">
<use xlink:href="#glyph-2-0" x="29.415701" y="97.89078"/>
<use xlink:href="#glyph-2-1" x="32.936716" y="97.89078"/>
<use xlink:href="#glyph-2-2" x="36.884773" y="97.89078"/>
<use xlink:href="#glyph-2-3" x="39.97944" y="97.89078"/>
</g>
<g fill="rgb(0%, 0%, 0%)" fill-opacity="1">
<use xlink:href="#glyph-2-4" x="46.169467" y="97.89078"/>
</g>
<g fill="rgb(0%, 0%, 0%)" fill-opacity="1">
<use xlink:href="#glyph-3-0" x="49.264445" y="97.89078"/>
</g>
<g fill="rgb(0%, 0%, 0%)" fill-opacity="1">
<use xlink:href="#glyph-0-1" x="57.708138" y="97.89078"/>
</g>
<g fill="rgb(0%, 0%, 0%)" fill-opacity="1">
<use xlink:href="#glyph-2-5" x="67.40437" y="97.89078"/>
<use xlink:href="#glyph-2-6" x="69.646339" y="97.89078"/>
</g>
<g fill="rgb(0%, 0%, 0%)" fill-opacity="1">
<use xlink:href="#glyph-0-0" x="76.689053" y="97.89078"/>
</g>
<g fill="rgb(0%, 0%, 0%)" fill-opacity="1">
<use xlink:href="#glyph-2-7" x="80.43076" y="97.89078"/>
</g>
<path fill-rule="nonzero" fill="rgb(87.998962%, 87.998962%, 100%)" fill-opacity="1" d="M 14.679688 114.988281 C 14.679688 113.621094 13.570312 112.515625 12.203125 112.515625 C 10.835938 112.515625 9.726562 113.621094 9.726562 114.988281 C 9.726562 116.355469 10.835938 117.464844 12.203125 117.464844 C 13.570312 117.464844 14.679688 116.355469 14.679688 114.988281 Z M 14.679688 114.988281 "/>
<g clip-path="url(#clip-2)">
<path fill="none" stroke-width="0.69739" stroke-linecap="round" stroke-linejoin="miter" stroke="rgb(0%, 0%, 69.999695%)" stroke-opacity="1" stroke-miterlimit="10" d="M 4.498191 -2.006366 C 4.498191 -0.631033 3.382207 0.481022 2.006874 0.481022 C 0.631541 0.481022 -0.484444 -0.631033 -0.484444 -2.006366 C -0.484444 -3.381699 0.631541 -4.497684 2.006874 -4.497684 C 3.382207 -4.497684 4.498191 -3.381699 4.498191 -2.006366 Z M 4.498191 -2.006366 " transform="matrix(0.994077, 0, 0, -0.994077, 10.208137, 112.993798)"/>
</g>
<g fill="rgb(0%, 0%, 0%)" fill-opacity="1">
<use xlink:href="#glyph-2-8" x="29.415701" y="114.727469"/>
</g>
<g fill="rgb(0%, 0%, 0%)" fill-opacity="1">
<use xlink:href="#glyph-2-1" x="34.005014" y="114.727469"/>
<use xlink:href="#glyph-2-2" x="37.953071" y="114.727469"/>
<use xlink:href="#glyph-2-9" x="41.047738" y="114.727469"/>
<use xlink:href="#glyph-2-3" x="45.422144" y="114.727469"/>
<use xlink:href="#glyph-2-2" x="48.943159" y="114.727469"/>
</g>
<g fill="rgb(0%, 0%, 0%)" fill-opacity="1">
<use xlink:href="#glyph-2-4" x="54.706837" y="114.727469"/>
<use xlink:href="#glyph-2-5" x="57.801504" y="114.727469"/>
<use xlink:href="#glyph-2-6" x="60.043473" y="114.727469"/>
</g>
<g fill="rgb(0%, 0%, 0%)" fill-opacity="1">
<use xlink:href="#glyph-2-10" x="67.08689" y="114.727469"/>
</g>
<g fill="rgb(0%, 0%, 0%)" fill-opacity="1">
<use xlink:href="#glyph-2-0" x="73.703959" y="114.727469"/>
<use xlink:href="#glyph-2-1" x="77.224974" y="114.727469"/>
</g>
<g fill="rgb(0%, 0%, 0%)" fill-opacity="1">
<use xlink:href="#glyph-2-2" x="81.166099" y="114.727469"/>
</g>
<g fill="rgb(0%, 0%, 0%)" fill-opacity="1">
<use xlink:href="#glyph-2-3" x="84.267698" y="114.727469"/>
<use xlink:href="#glyph-2-11" x="87.788713" y="114.727469"/>
<use xlink:href="#glyph-2-12" x="90.030683" y="114.727469"/>
</g>
<g fill="rgb(0%, 0%, 0%)" fill-opacity="1">
<use xlink:href="#glyph-0-0" x="95.83399" y="114.727469"/>
</g>
<g fill="rgb(0%, 0%, 0%)" fill-opacity="1">
<use xlink:href="#glyph-2-7" x="99.575697" y="114.727469"/>
</g>
<g fill="rgb(59.999084%, 0%, 0%)" fill-opacity="1">
<use xlink:href="#glyph-1-0" x="14.368351" y="139.271241"/>
</g>
<g fill="rgb(0%, 0%, 0%)" fill-opacity="1">
<use xlink:href="#glyph-2-6" x="29.415701" y="131.563164"/>
<use xlink:href="#glyph-2-1" x="33.790107" y="131.563164"/>
<use xlink:href="#glyph-2-5" x="37.738164" y="131.563164"/>
<use xlink:href="#glyph-2-12" x="39.980133" y="131.563164"/>
<use xlink:href="#glyph-2-3" x="43.117782" y="131.563164"/>
</g>
<g fill="rgb(0%, 0%, 0%)" fill-opacity="1">
<use xlink:href="#glyph-2-4" x="49.307808" y="131.563164"/>
<use xlink:href="#glyph-2-9" x="52.402475" y="131.563164"/>
<use xlink:href="#glyph-2-5" x="56.776881" y="131.563164"/>
<use xlink:href="#glyph-2-12" x="59.01885" y="131.563164"/>
<use xlink:href="#glyph-2-0" x="62.156498" y="131.563164"/>
<use xlink:href="#glyph-2-10" x="65.677514" y="131.563164"/>
<use xlink:href="#glyph-2-2" x="69.625571" y="131.563164"/>
<use xlink:href="#glyph-2-9" x="72.720237" y="131.563164"/>
<use xlink:href="#glyph-2-3" x="77.094643" y="131.563164"/>
<use xlink:href="#glyph-2-9" x="80.615658" y="131.563164"/>
<use xlink:href="#glyph-2-7" x="84.990064" y="131.563164"/>
</g>
</svg>
